<mxfile host="65bd71144e">
    <diagram id="9XbAXNn2X1sFxuL3f3yr" name="第 1 页">
        <mxGraphModel dx="1505" dy="840" grid="1" gridSize="10" guides="1" tooltips="1" connect="1" arrows="1" fold="1" page="0" pageScale="1" pageWidth="827" pageHeight="1169" background="none" math="0" shadow="1">
            <root>
                <mxCell id="0"/>
                <mxCell id="1" parent="0"/>
                <mxCell id="12" value="" style="edgeStyle=none;html=1;" parent="1" source="2" target="11" edge="1">
                    <mxGeometry relative="1" as="geometry"/>
                </mxCell>
                <mxCell id="2" value="javascript源代码&lt;br&gt;" style="rounded=1;whiteSpace=wrap;html=1;fillColor=#e3c800;fontColor=#000000;strokeColor=#B09500;" parent="1" vertex="1">
                    <mxGeometry x="-70" y="290" width="110" height="60" as="geometry"/>
                </mxCell>
                <mxCell id="16" value="" style="edgeStyle=none;html=1;" parent="1" source="11" target="13" edge="1">
                    <mxGeometry relative="1" as="geometry"/>
                </mxCell>
                <mxCell id="11" value="Parse" style="shape=parallelogram;perimeter=parallelogramPerimeter;whiteSpace=wrap;html=1;fixedSize=1;fillColor=#647687;fontColor=#ffffff;strokeColor=#314354;" parent="1" vertex="1">
                    <mxGeometry x="120" y="298" width="100" height="40" as="geometry"/>
                </mxCell>
                <mxCell id="18" value="" style="edgeStyle=none;html=1;" parent="1" source="13" target="17" edge="1">
                    <mxGeometry relative="1" as="geometry"/>
                </mxCell>
                <mxCell id="13" value="AST抽象语法树" style="rounded=1;whiteSpace=wrap;html=1;fillColor=#fa6800;fontColor=#000000;strokeColor=#C73500;" parent="1" vertex="1">
                    <mxGeometry x="300" y="270" width="120" height="90" as="geometry"/>
                </mxCell>
                <mxCell id="20" value="" style="edgeStyle=none;html=1;" parent="1" source="17" target="19" edge="1">
                    <mxGeometry relative="1" as="geometry"/>
                </mxCell>
                <mxCell id="26" value="" style="edgeStyle=none;html=1;" parent="1" source="17" target="25" edge="1">
                    <mxGeometry relative="1" as="geometry"/>
                </mxCell>
                <mxCell id="17" value="Igntion&lt;br&gt;解释器" style="shape=parallelogram;perimeter=parallelogramPerimeter;whiteSpace=wrap;html=1;fixedSize=1;fillColor=#647687;fontColor=#ffffff;strokeColor=#314354;" parent="1" vertex="1">
                    <mxGeometry x="535" y="280" width="100" height="70" as="geometry"/>
                </mxCell>
                <mxCell id="19" value="bytecode&lt;br&gt;字节码" style="rounded=1;whiteSpace=wrap;html=1;fillColor=#e3c800;fontColor=#000000;strokeColor=#B09500;dashed=1;dashPattern=1 1;sketch=0;shadow=0;glass=0;" parent="1" vertex="1">
                    <mxGeometry x="670" y="510" width="140" height="60" as="geometry"/>
                </mxCell>
                <mxCell id="21" value="运行结果&lt;br&gt;" style="ellipse;whiteSpace=wrap;html=1;fillColor=#60a917;strokeColor=#2D7600;fontColor=#ffffff;rounded=1;" parent="1" vertex="1">
                    <mxGeometry x="-140" y="510" width="120" height="60" as="geometry"/>
                </mxCell>
                <mxCell id="23" value="词法分析" style="text;html=1;align=center;verticalAlign=middle;resizable=0;points=[];autosize=1;strokeColor=none;fillColor=none;" parent="1" vertex="1">
                    <mxGeometry x="160" y="338" width="60" height="20" as="geometry"/>
                </mxCell>
                <mxCell id="24" value="语法分析&lt;br&gt;" style="text;html=1;align=center;verticalAlign=middle;resizable=0;points=[];autosize=1;strokeColor=none;fillColor=none;" parent="1" vertex="1">
                    <mxGeometry x="110" y="338" width="60" height="20" as="geometry"/>
                </mxCell>
                <mxCell id="25" value="TurboFan&lt;br&gt;优化编译器&lt;br&gt;优化或去优化" style="shape=parallelogram;perimeter=parallelogramPerimeter;whiteSpace=wrap;html=1;fixedSize=1;fillColor=#647687;strokeColor=#314354;fontColor=#ffffff;direction=west;" parent="1" vertex="1">
                    <mxGeometry x="260" y="510" width="120" height="60" as="geometry"/>
                </mxCell>
                <mxCell id="27" value="MachineCode&lt;br&gt;优化的机器码" style="whiteSpace=wrap;html=1;fillColor=#647687;strokeColor=#314354;fontColor=#ffffff;" parent="1" vertex="1">
                    <mxGeometry x="90" y="510" width="120" height="60" as="geometry"/>
                </mxCell>
                <mxCell id="33" value="字节码是跨平台的" style="text;html=1;align=center;verticalAlign=middle;resizable=0;points=[];autosize=1;strokeColor=none;fillColor=none;" parent="1" vertex="1">
                    <mxGeometry x="685" y="570" width="110" height="20" as="geometry"/>
                </mxCell>
                <mxCell id="34" value="获取一些代码执行信息，比如一个函数执行多少次" style="text;html=1;align=center;verticalAlign=middle;resizable=0;points=[];autosize=1;fontStyle=3;fontSize=13;fillColor=#a0522d;strokeColor=#6D1F00;fontColor=#ffffff;" parent="1" vertex="1">
                    <mxGeometry x="435" y="220" width="300" height="20" as="geometry"/>
                </mxCell>
                <mxCell id="37" value="" style="endArrow=classic;startArrow=classic;html=1;fontSize=13;fontColor=#FF3333;strokeColor=default;exitX=0.5;exitY=0;exitDx=0;exitDy=0;entryX=0.534;entryY=1.053;entryDx=0;entryDy=0;entryPerimeter=0;" parent="1" source="17" target="34" edge="1">
                    <mxGeometry width="50" height="50" relative="1" as="geometry">
                        <mxPoint x="590" y="300" as="sourcePoint"/>
                        <mxPoint x="640" y="250" as="targetPoint"/>
                        <Array as="points">
                            <mxPoint x="585" y="270"/>
                        </Array>
                    </mxGeometry>
                </mxCell>
                <mxCell id="41" value="&lt;blockquote style=&quot;margin: 0 0 0 40px ; border: none ; padding: 0px&quot;&gt;&lt;blockquote style=&quot;margin: 0px 0px 0px 40px ; border: none ; padding: 0px ; line-height: 1.5&quot;&gt;&lt;b&gt;&lt;font color=&quot;#66b2ff&quot;&gt;简单来说，对于重复执行的代码，如果多次执行都传入类型相同的参数，那么 V8 会假设之后每一次执行的参数类型也是相同的，&lt;/font&gt;&lt;/b&gt;&lt;br&gt;&lt;b&gt;&lt;font color=&quot;#66b2ff&quot;&gt;并对代码进行优化。优化后的代码中会保留基本的类型检查。&lt;/font&gt;&lt;/b&gt;&lt;br&gt;&lt;b&gt;&lt;font color=&quot;#66b2ff&quot;&gt;如果之后的每次执行参数类型未改变，V8 将一直执行优化过的代码。而当之后某一次执行时传入的参数类型发生变化时，&lt;/font&gt;&lt;/b&gt;&lt;br&gt;&lt;b&gt;&lt;font color=&quot;#66b2ff&quot;&gt;V8 将会“撤销”之前的优化操作，这一步称为“去优化”（Deoptimization）。&lt;/font&gt;&lt;/b&gt;&lt;br&gt;&lt;/blockquote&gt;&lt;/blockquote&gt;" style="text;html=1;align=center;verticalAlign=middle;resizable=0;points=[];autosize=1;strokeColor=none;fillColor=none;fontSize=13;fontColor=#CCCCCC;" parent="1" vertex="1">
                    <mxGeometry x="-95" y="740" width="830" height="80" as="geometry"/>
                </mxCell>
                <mxCell id="46" value="Feedback" style="ellipse;whiteSpace=wrap;html=1;aspect=fixed;shadow=0;glass=0;dashed=1;dashPattern=1 1;sketch=0;fontSize=13;fontColor=#66B2FF;" parent="1" vertex="1">
                    <mxGeometry x="490" y="500" width="80" height="80" as="geometry"/>
                </mxCell>
                <mxCell id="48" value="Optimize" style="text;html=1;align=center;verticalAlign=middle;resizable=0;points=[];autosize=1;strokeColor=none;fillColor=none;fontSize=14;fontColor=#FF9933;fontStyle=1" parent="1" vertex="1">
                    <mxGeometry x="390" y="510" width="70" height="20" as="geometry"/>
                </mxCell>
                <mxCell id="49" value="" style="curved=1;endArrow=classic;html=1;fontSize=14;fontColor=#FF9933;strokeColor=default;exitX=0;exitY=0.5;exitDx=0;exitDy=0;entryX=0;entryY=0.5;entryDx=0;entryDy=0;" parent="1" source="19" target="25" edge="1">
                    <mxGeometry width="50" height="50" relative="1" as="geometry">
                        <mxPoint x="470" y="490" as="sourcePoint"/>
                        <mxPoint x="520" y="440" as="targetPoint"/>
                        <Array as="points">
                            <mxPoint x="480" y="760"/>
                            <mxPoint x="470" y="570"/>
                        </Array>
                    </mxGeometry>
                </mxCell>
                <mxCell id="50" value="Hot Function" style="text;html=1;align=center;verticalAlign=middle;resizable=0;points=[];autosize=1;strokeColor=none;fillColor=none;fontSize=14;fontColor=#FF9933;" parent="1" vertex="1">
                    <mxGeometry x="480" y="640" width="90" height="20" as="geometry"/>
                </mxCell>
                <mxCell id="52" value="" style="endArrow=classic;html=1;fontSize=14;fontColor=#FF9933;strokeColor=#CC0000;exitX=0.5;exitY=1;exitDx=0;exitDy=0;entryX=0;entryY=0.75;entryDx=0;entryDy=0;" parent="1" source="25" target="17" edge="1">
                    <mxGeometry width="50" height="50" relative="1" as="geometry">
                        <mxPoint x="470" y="490" as="sourcePoint"/>
                        <mxPoint x="530" y="340" as="targetPoint"/>
                    </mxGeometry>
                </mxCell>
                <mxCell id="53" value="Deoptimize" style="text;html=1;align=center;verticalAlign=middle;resizable=0;points=[];autosize=1;strokeColor=none;fillColor=none;fontSize=14;fontColor=#FF9999;" parent="1" vertex="1">
                    <mxGeometry x="345" y="410" width="90" height="20" as="geometry"/>
                </mxCell>
                <mxCell id="54" value="" style="shape=flexArrow;endArrow=classic;startArrow=classic;html=1;fontSize=14;fontColor=#FF9999;strokeColor=#CC6600;entryX=0.5;entryY=0;entryDx=0;entryDy=0;exitX=0.381;exitY=-0.046;exitDx=0;exitDy=0;exitPerimeter=0;" parent="1" source="41" target="25" edge="1">
                    <mxGeometry width="100" height="100" relative="1" as="geometry">
                        <mxPoint x="230" y="690" as="sourcePoint"/>
                        <mxPoint x="330" y="590" as="targetPoint"/>
                    </mxGeometry>
                </mxCell>
                <mxCell id="56" value="" style="shape=curlyBracket;whiteSpace=wrap;html=1;rounded=1;flipH=1;shadow=0;glass=0;dashed=1;dashPattern=1 1;sketch=0;fontSize=14;fontColor=#000000;size=0.5;fillColor=#e3c800;strokeColor=#B09500;" parent="1" vertex="1">
                    <mxGeometry x="-25" y="480" width="20" height="120" as="geometry"/>
                </mxCell>
                <mxCell id="57" value="" style="endArrow=classic;html=1;fontSize=14;fontColor=#FF9999;strokeColor=#00FF00;exitX=0;exitY=0.5;exitDx=0;exitDy=0;entryX=0.1;entryY=0.5;entryDx=0;entryDy=0;entryPerimeter=0;fillColor=#008a00;" parent="1" source="27" target="56" edge="1">
                    <mxGeometry width="50" height="50" relative="1" as="geometry">
                        <mxPoint x="470" y="490" as="sourcePoint"/>
                        <mxPoint x="520" y="440" as="targetPoint"/>
                    </mxGeometry>
                </mxCell>
                <mxCell id="58" value="Intel" style="text;html=1;align=center;verticalAlign=middle;resizable=0;points=[];autosize=1;strokeColor=none;fillColor=none;fontSize=14;fontColor=#FF9999;" parent="1" vertex="1">
                    <mxGeometry x="-65" y="470" width="40" height="20" as="geometry"/>
                </mxCell>
                <mxCell id="59" value="ARM" style="text;html=1;align=center;verticalAlign=middle;resizable=0;points=[];autosize=1;strokeColor=none;fillColor=none;fontSize=14;fontColor=#FF9999;" parent="1" vertex="1">
                    <mxGeometry x="-70" y="590" width="50" height="20" as="geometry"/>
                </mxCell>
                <mxCell id="60" value="" style="endArrow=classic;html=1;exitX=1;exitY=0.5;exitDx=0;exitDy=0;entryX=0;entryY=0.5;entryDx=0;entryDy=0;entryPerimeter=0;" parent="1" source="2" target="61" edge="1">
                    <mxGeometry width="50" height="50" relative="1" as="geometry">
                        <mxPoint x="50" y="310" as="sourcePoint"/>
                        <mxPoint x="130" y="240" as="targetPoint"/>
                    </mxGeometry>
                </mxCell>
                <mxCell id="61" value="preParse&lt;br&gt;预解析" style="shape=hexagon;perimeter=hexagonPerimeter2;whiteSpace=wrap;html=1;fixedSize=1;" parent="1" vertex="1">
                    <mxGeometry x="140" y="210" width="100" height="40" as="geometry"/>
                </mxCell>
                <mxCell id="62" value="" style="endArrow=classic;html=1;exitX=0.5;exitY=1;exitDx=0;exitDy=0;" parent="1" source="61" target="11" edge="1">
                    <mxGeometry width="50" height="50" relative="1" as="geometry">
                        <mxPoint x="350" y="590" as="sourcePoint"/>
                        <mxPoint x="400" y="540" as="targetPoint"/>
                    </mxGeometry>
                </mxCell>
                <mxCell id="64" value="" style="endArrow=none;dashed=1;html=1;dashPattern=1 3;strokeWidth=2;entryX=0;entryY=0.5;entryDx=0;entryDy=0;exitX=1;exitY=0.5;exitDx=0;exitDy=0;" parent="1" source="46" target="19" edge="1">
                    <mxGeometry width="50" height="50" relative="1" as="geometry">
                        <mxPoint x="350" y="590" as="sourcePoint"/>
                        <mxPoint x="400" y="540" as="targetPoint"/>
                    </mxGeometry>
                </mxCell>
                <mxCell id="65" value="" style="endArrow=none;dashed=1;html=1;dashPattern=1 3;strokeWidth=2;entryX=0;entryY=0.5;entryDx=0;entryDy=0;exitX=0;exitY=0.5;exitDx=0;exitDy=0;" parent="1" source="25" target="46" edge="1">
                    <mxGeometry width="50" height="50" relative="1" as="geometry">
                        <mxPoint x="470" y="540" as="sourcePoint"/>
                        <mxPoint x="640" y="540" as="targetPoint"/>
                    </mxGeometry>
                </mxCell>
                <mxCell id="66" value="" style="shape=flexArrow;endArrow=classic;html=1;width=9;endSize=12.67;" parent="1" edge="1">
                    <mxGeometry width="50" height="50" relative="1" as="geometry">
                        <mxPoint x="810" y="539.5" as="sourcePoint"/>
                        <mxPoint x="870" y="539.5" as="targetPoint"/>
                    </mxGeometry>
                </mxCell>
                <mxCell id="69" value="&lt;b&gt;&lt;font color=&quot;#00cc00&quot;&gt;解析执行&lt;/font&gt;&lt;/b&gt;" style="text;html=1;align=center;verticalAlign=middle;resizable=0;points=[];autosize=1;strokeColor=none;fillColor=none;" parent="1" vertex="1">
                    <mxGeometry x="860" y="530" width="60" height="20" as="geometry"/>
                </mxCell>
                <mxCell id="73" value="" style="endArrow=classic;html=1;fontColor=#00CC00;strokeColor=#00FF00;exitX=1;exitY=0.5;exitDx=0;exitDy=0;entryX=1;entryY=0.5;entryDx=0;entryDy=0;" parent="1" source="25" target="27" edge="1">
                    <mxGeometry width="50" height="50" relative="1" as="geometry">
                        <mxPoint x="370" y="610" as="sourcePoint"/>
                        <mxPoint x="420" y="560" as="targetPoint"/>
                    </mxGeometry>
                </mxCell>
                <mxCell id="74" value="&lt;h1&gt;&lt;span style=&quot;font-weight: normal&quot;&gt;&lt;font color=&quot;#ff9933&quot;&gt;&amp;nbsp; &amp;nbsp; &amp;nbsp; &amp;nbsp; &amp;nbsp; &amp;nbsp; &amp;nbsp;编译原理&lt;/font&gt;&lt;/span&gt;&lt;/h1&gt;&lt;div&gt;&lt;div style=&quot;background-color: rgb(30 , 30 , 30) ; font-family: &amp;#34;menlo&amp;#34; , &amp;#34;monaco&amp;#34; , &amp;#34;courier new&amp;#34; , monospace ; line-height: 18px&quot;&gt;&lt;div&gt;&lt;font color=&quot;#ff9933&quot;&gt;首先 V8 引擎会扫描所有的源代码，进行词法分析，生成 Tokens;&lt;/font&gt;&lt;/div&gt;&lt;div&gt;&lt;font color=&quot;#ff9933&quot;&gt;Parser 解析器根据 Tokens 生成 AST；&lt;/font&gt;&lt;/div&gt;&lt;div&gt;&lt;font color=&quot;#ff9933&quot;&gt;Ignition 解释器将 AST 转换为字节码，并解释执行；&lt;/font&gt;&lt;/div&gt;&lt;div&gt;&lt;font color=&quot;#ff9933&quot;&gt;TurboFan 编译器负责将热点函数优化编译为机器指令执行；&lt;/font&gt;&lt;/div&gt;&lt;/div&gt;&lt;/div&gt;" style="text;html=1;strokeColor=none;fillColor=none;spacing=5;spacingTop=-20;whiteSpace=wrap;overflow=hidden;rounded=0;fontColor=#00CC00;align=left;" parent="1" vertex="1">
                    <mxGeometry x="-190" y="80" width="380" height="140" as="geometry"/>
                </mxCell>
            </root>
        </mxGraphModel>
    </diagram>
</mxfile>